<svg width="252" height="63" xmlns="http://www.w3.org/2000/svg"><defs><linearGradient x1="-.782%" y1="78.808%" x2="92.358%" y2="35.89%" id="a"><stop stop-color="#6051F2" offset="0%"/><stop stop-color="#7D8CF9" offset="100%"/></linearGradient></defs><g fill="none"><path d="M91 47.381l-8.951-16.467h-7.674V47.38h-9.502V1.593h19.59c4.446 0 8.016 1.295 10.71 3.885 2.696 2.59 4.043 6.192 4.043 10.806a15.908 15.908 0 01-1.925 8.05 12.46 12.46 0 01-5.425 5.049l9.739 17.998H91zm-16.625-24.85H83.3a6.361 6.361 0 004.559-1.653 6.029 6.029 0 001.75-4.594 6.195 6.195 0 00-1.75-4.716A6.361 6.361 0 0083.3 9.914h-8.995l.07 12.617zM109.987 0a5.189 5.189 0 013.824 1.558 5.25 5.25 0 011.566 3.832 5.127 5.127 0 01-1.566 3.763 5.189 5.189 0 01-3.824 1.557 5.101 5.101 0 01-3.797-1.558 5.198 5.198 0 01-1.531-3.762 5.189 5.189 0 011.592-3.797A5.145 5.145 0 01109.987 0zm4.472 47.381h-8.943V15.75h8.943v31.631zm24.237-32.261a14.473 14.473 0 0111.052 4.533c2.835 3.021 4.252 7 4.252 11.934 0 4.936-1.417 8.914-4.252 11.936a14.473 14.473 0 01-11.052 4.532c-3.873 0-6.83-1.123-8.872-3.369V63h-8.943V15.75h8.453v3.308c1.96-2.631 5.08-3.944 9.362-3.938zm-1.409 7.63a7.087 7.087 0 00-5.416 2.17 8.278 8.278 0 00-2.047 5.906v1.47a8.251 8.251 0 002.047 5.907 7.805 7.805 0 0010.955-.15 9.328 9.328 0 002.118-6.492 9.328 9.328 0 00-2.118-6.492 7.131 7.131 0 00-5.538-2.319zm52.098 11.655H167.65a6.764 6.764 0 001.873 4.716 6.484 6.484 0 004.742 1.706c3.185 0 5.122-1.166 5.81-3.5l9.004.43a11.445 11.445 0 01-4.927 7.402 16.293 16.293 0 01-9.624 2.879c-4.9 0-8.85-1.49-11.848-4.472-2.998-2.98-4.503-6.974-4.515-11.979 0-5.057 1.49-9.067 4.471-12.03 2.981-2.964 6.857-4.443 11.629-4.437 4.614 0 8.286 1.397 11.016 4.191 2.73 2.794 4.098 6.642 4.104 11.541v3.553zm-15.181-12.303a6.379 6.379 0 00-4.62 1.68 6.816 6.816 0 00-1.934 4.682h12.731a7.052 7.052 0 00-1.68-4.681 5.836 5.836 0 00-4.497-1.68zm27.484 25.279h-3.614V1.593h3.613zm10.771-45.788h17.386c6.37 0 11.567 2.02 15.61 6.125 4.042 4.103 6.064 9.677 6.064 16.773s-2.083 12.679-6.186 16.774c-4.104 4.095-9.302 6.125-15.61 6.125h-17.264V1.593zm3.613 3.123v39.541h13.65c5.39 0 9.73-1.75 13.125-5.206 3.395-3.456 5.084-8.321 5.084-14.569 0-6.247-1.654-11.077-5.022-14.568-3.369-3.491-7.648-5.198-13.038-5.198h-13.799z" fill="#22283F"/><path d="M26.25.175C11.753.175 0 11.928 0 26.425a26.172 26.172 0 005.416 16.004 3.132 3.132 0 005.311-.499c2-4.15 6.2-6.79 10.807-6.79h9.485c4.607 0 8.807 2.64 10.806 6.79a3.133 3.133 0 005.311.499 26.171 26.171 0 005.417-15.978A26.25 26.25 0 0026.25.175zM28 29.6a9.914 9.914 0 118.094-8.102A9.931 9.931 0 0128 29.6z" fill="url(#a)"/></g></svg>